<svg viewBox="0 3.725997382198953 53.436 27.670157068062828" style="max-height: 500px" xml:space="preserve" xmlns="http://www.w3.org/2000/svg" width="53.436" height="27.670157068062828"><path style="fill:#b8ee4b" d="M36.694 18.975 48.943 6.626l-1.602-1.614-12.249 12.349 1.602 1.614ZM40.954 20.093 53.03 8.017l-1.614-1.614L39.34 18.479l1.614 1.614Z"/><path style="fill:#b8ee4b" d="M37.215 17.411h2.459v7.152h-2.459z"/><path style="fill:#b8ee4b;fill-rule:nonzero" d="m14.632 4.173-3.353 1.631-.347.169-6.486 24.853h6.435l4.502-17.232 17.233 17.232h8.669L14.632 4.173Z"/><path style="fill:#b8ee4b" d="m4.722 26.007-1.039 3.981H0v-1.812l4.722-2.169Zm22.663-10.412 12.56-5.771h3.76l3.759 3.759v6.38l-3.645 3.645-4.618-4.68-1.176 1.16 9.768 9.9h-6.015L27.385 15.595Zm-13.153 6.042 5.412-2.486 7.965 7.965-6.647 2.872H12.05l2.182-8.351Z"/><path d="M64.001 30V11.009h4.5v15.215h10.942V30H64.001Zm26.404.633c-6.194 0-10.422-4.16-10.422-10.128 0-5.969 4.228-10.129 10.422-10.129 6.218 0 10.445 4.16 10.445 10.129 0 5.968-4.227 10.128-10.445 10.128Zm0-3.911c3.391 0 5.969-2.487 5.969-6.217 0-3.731-2.578-6.218-5.969-6.218-3.368 0-5.968 2.487-5.968 6.218 0 3.73 2.6 6.217 5.968 6.217Zm22.233 3.911c-6.15 0-10.4-4.16-10.4-10.128 0-5.969 4.25-10.129 10.4-10.129 4.16 0 8.433 1.854 9.359 7.438h-4.318c-.814-2.442-2.69-3.527-5.041-3.527-3.369 0-5.946 2.555-5.946 6.218 0 3.639 2.577 6.217 5.946 6.217 2.351 0 4.227-1.085 5.041-3.55h4.318c-.926 5.607-5.154 7.461-9.359 7.461Zm20.132 0c-5.856 0-9.157-2.758-9.157-8.546V11.009h4.545v10.965c0 3.03 1.514 4.861 4.612 4.861 3.097 0 4.634-1.831 4.634-4.861V11.009h4.522v11.078c0 5.788-3.301 8.546-9.156 8.546Zm19.45 0c-5.788 0-8.84-2.057-8.817-6.511h4.069c.158 1.786 1.628 2.916 4.748 2.939 2.939 0 4.544-.995 4.544-2.487 0-1.311-1.062-1.967-3.323-2.351l-2.352-.407c-3.594-.633-7.166-1.583-7.166-5.72 0-3.595 3.029-5.72 8.342-5.72 4.951 0 8.388 1.741 8.433 6.443h-4.047c-.294-1.718-1.628-2.871-4.476-2.871-2.578 0-3.934.882-3.934 2.351 0 1.153.927 1.877 2.871 2.239l2.057.361c3.618.656 8.072 1.266 8.072 5.811 0 3.775-3.098 5.923-9.021 5.923Zm28.174-19.624v3.776h-7.122V30h-4.521V14.785h-7.099v-3.776h18.742Z" fill="currentcolor"/></svg>